<?xml version="1.0" encoding="utf-8"?>
<!-- Generator: Adobe Illustrator 24.3.0, SVG Export Plug-In . SVG Version: 6.00 Build 0)  -->
<svg version="1.1" id="Layer_1" xmlns="http://www.w3.org/2000/svg" xmlns:xlink="http://www.w3.org/1999/xlink" x="0px" y="0px"
	 viewBox="0 0 237.1 37" style="enable-background:new 0 0 237.1 37;" xml:space="preserve">
<style type="text/css">
	.st0{fill:#004191;}
	.st1{clip-path:url(#SVGID_2_);fill:url(#SVGID_3_);}
</style>
<g>
	<g>
		<g>
			<g>
				<g>
					<g>
						<g>
							<rect x="39.7" class="st0" width="3.9" height="14.7"/>
						</g>
						<g>
							<polygon class="st0" points="60.5,0 60.5,3.1 65.4,3.1 65.4,14.7 69.3,14.7 69.3,3.1 74.2,3.1 74.2,0 							"/>
						</g>
						<g>
							<path class="st0" d="M55.1,5.8h-3.3c-0.9,0-1.5-0.4-1.5-1.4c0-1,0.6-1.4,1.5-1.4h7.1V0h-7.5c-2.8,0-5,1.6-5,4.4
								s2.3,4.4,5,4.4h3.4c0.9,0,1.5,0.4,1.5,1.4c0,1-0.6,1.4-1.5,1.4h-7.9v3.1h8.2c2.8,0,5-1.6,5-4.4C60.1,7.4,57.9,5.8,55.1,5.8z"
								/>
						</g>
						<g>
							<polygon class="st0" points="27.8,0 22.3,13.2 17,7.3 23.6,0 19.2,0 12.9,7 12.9,0 9,0 9,14.7 12.9,14.7 12.9,7.7 19.2,14.7 
								25.7,14.7 30.1,3.6 33.4,11.7 28.2,11.7 29.4,14.7 38.5,14.7 32.4,0 							"/>
						</g>
					</g>
				</g>
				<g>
					<g>
						<defs>
							<path id="SVGID_1_" d="M0,20.8c13.6,1.9,27.5,2.9,41.6,2.9c14.1,0,28-1,41.6-2.9c-13.6-1.9-27.5-2.9-41.6-2.9
								C27.5,17.9,13.6,18.9,0,20.8z"/>
						</defs>
						<clipPath id="SVGID_2_">
							<use xlink:href="#SVGID_1_"  style="overflow:visible;"/>
						</clipPath>
						<linearGradient id="SVGID_3_" gradientUnits="userSpaceOnUse" x1="0" y1="20.8274" x2="83.2695" y2="20.8274">
							<stop  offset="5.586592e-03" style="stop-color:#5FBFED"/>
							<stop  offset="1" style="stop-color:#005CA8"/>
						</linearGradient>
						<polygon class="st1" points="79.1,17.9 78.2,17.9 77.4,17.9 76.5,17.9 75.6,17.9 74.7,17.9 73.9,17.9 73,17.9 72.1,17.9 
							71.3,17.9 70.4,17.9 69.5,17.9 68.6,17.9 67.8,17.9 66.9,17.9 66,17.9 65.2,17.9 64.3,17.9 63.4,17.9 62.5,17.9 61.7,17.9 
							60.8,17.9 59.9,17.9 59.1,17.9 58.2,17.9 57.3,17.9 56.4,17.9 55.6,17.9 54.7,17.9 53.8,17.9 53,17.9 52.1,17.9 51.2,17.9 
							50.3,17.9 49.5,17.9 48.6,17.9 47.7,17.9 46.9,17.9 46,17.9 45.1,17.9 44.2,17.9 43.4,17.9 42.5,17.9 41.6,17.9 41.1,17.9 
							40.6,17.9 40.1,17.9 39.6,17.9 39.1,17.9 38.6,17.9 38.1,17.9 37.6,17.9 37.1,17.9 36.6,17.9 36.1,17.9 35.6,17.9 35.1,17.9 
							34.6,17.9 34.1,17.9 33.6,17.9 33.1,17.9 32.6,17.9 32.1,17.9 31.6,17.9 31.1,17.9 30.6,17.9 30.1,17.9 29.6,17.9 29.1,17.9 
							28.6,17.9 28.1,17.9 27.6,17.9 27.1,17.9 26.6,17.9 26.1,17.9 25.6,17.9 25.1,17.9 24.6,17.9 24.1,17.9 23.6,17.9 23.1,17.9 
							22.6,17.9 22.1,17.9 21.7,17.9 21.2,17.9 20.7,17.9 20.2,17.9 19.7,17.9 19.2,17.9 18.7,17.9 18.2,17.9 17.7,17.9 17.2,17.9 
							16.7,17.9 16.2,17.9 15.7,17.9 15.2,17.9 14.7,17.9 14.2,17.9 13.7,17.9 13.2,17.9 12.7,17.9 12.2,17.9 11.7,17.9 11.2,17.9 
							10.7,17.9 10.2,17.9 9.7,17.9 9.2,17.9 8.7,17.9 8.2,17.9 7.7,17.9 7.2,17.9 6.7,17.9 6.2,17.9 5.7,17.9 5.2,17.9 4.7,17.9 
							4.2,17.9 0,17.9 0,23.8 4.2,23.8 4.7,23.8 5.2,23.8 5.7,23.8 6.2,23.8 6.7,23.8 7.2,23.8 7.7,23.8 8.2,23.8 8.7,23.8 
							9.2,23.8 9.7,23.8 10.2,23.8 10.7,23.8 11.2,23.8 11.7,23.8 12.2,23.8 12.7,23.8 13.2,23.8 13.7,23.8 14.2,23.8 14.7,23.8 
							15.2,23.8 15.7,23.8 16.2,23.8 16.7,23.8 17.2,23.8 17.7,23.8 18.2,23.8 18.7,23.8 19.2,23.8 19.7,23.8 20.2,23.8 20.7,23.8 
							21.2,23.8 21.7,23.8 22.1,23.8 22.6,23.8 23.1,23.8 23.6,23.8 24.1,23.8 24.6,23.8 25.1,23.8 25.6,23.8 26.1,23.8 26.6,23.8 
							27.1,23.8 27.6,23.8 28.1,23.8 28.6,23.8 29.1,23.8 29.6,23.8 30.1,23.8 30.6,23.8 31.1,23.8 31.6,23.8 32.1,23.8 32.6,23.8 
							33.1,23.8 33.6,23.8 34.1,23.8 34.6,23.8 35.1,23.8 35.6,23.8 36.1,23.8 36.6,23.8 37.1,23.8 37.6,23.8 38.1,23.8 38.6,23.8 
							39.1,23.8 39.6,23.8 40.1,23.8 40.6,23.8 41.1,23.8 41.6,23.8 42.5,23.8 43.4,23.8 44.2,23.8 45.1,23.8 46,23.8 46.9,23.8 
							47.7,23.8 48.6,23.8 49.5,23.8 50.3,23.8 51.2,23.8 52.1,23.8 53,23.8 53.8,23.8 54.7,23.8 55.6,23.8 56.4,23.8 57.3,23.8 
							58.2,23.8 59.1,23.8 59.9,23.8 60.8,23.8 61.7,23.8 62.5,23.8 63.4,23.8 64.3,23.8 65.2,23.8 66,23.8 66.9,23.8 67.8,23.8 
							68.6,23.8 69.5,23.8 70.4,23.8 71.3,23.8 72.1,23.8 73,23.8 73.9,23.8 74.7,23.8 75.6,23.8 76.5,23.8 77.4,23.8 78.2,23.8 
							79.1,23.8 83.3,23.8 83.3,17.9 						"/>
					</g>
				</g>
			</g>
		</g>
	</g>
	<g>
		<path class="st0" d="M91.6,25.6l0.5-0.6c0.4,0.4,0.9,0.6,1.4,0.6c0.6,0,1-0.3,1-0.8c0-0.5-0.4-0.6-0.9-0.9L93,23.7
			c-0.5-0.2-1.1-0.6-1.1-1.4c0-0.8,0.7-1.5,1.8-1.5c0.6,0,1.2,0.3,1.6,0.7l-0.4,0.5c-0.3-0.3-0.7-0.5-1.2-0.5
			c-0.5,0-0.9,0.3-0.9,0.7c0,0.5,0.4,0.6,0.9,0.8l0.7,0.3c0.6,0.3,1.1,0.7,1.1,1.4c0,0.9-0.7,1.5-1.9,1.5
			C92.8,26.4,92.1,26.1,91.6,25.6z"/>
		<path class="st0" d="M96.1,24.3c0-1.3,0.9-2.1,2-2.1c0.5,0,0.9,0.2,1.2,0.5l-0.4,0.5c-0.2-0.2-0.4-0.3-0.7-0.3
			c-0.7,0-1.2,0.6-1.2,1.4c0,0.8,0.5,1.4,1.1,1.4c0.3,0,0.6-0.2,0.9-0.4l0.3,0.5c-0.4,0.3-0.8,0.5-1.3,0.5
			C96.9,26.4,96.1,25.6,96.1,24.3z"/>
		<path class="st0" d="M100.1,20.5h0.8v1.5l0,0.8c0.3-0.3,0.7-0.6,1.3-0.6c0.8,0,1.2,0.6,1.2,1.6v2.5h-0.8v-2.4c0-0.7-0.2-1-0.7-1
			c-0.4,0-0.6,0.2-1,0.5v2.8h-0.8V20.5z"/>
		<path class="st0" d="M104.3,24.3c0-1.3,0.9-2.1,1.9-2.1c1,0,1.9,0.8,1.9,2.1c0,1.3-0.9,2.1-1.9,2.1
			C105.2,26.4,104.3,25.6,104.3,24.3z M107.2,24.3c0-0.8-0.4-1.4-1-1.4c-0.6,0-1,0.6-1,1.4c0,0.8,0.4,1.4,1,1.4
			C106.8,25.7,107.2,25.1,107.2,24.3z"/>
		<path class="st0" d="M108.7,24.3c0-1.3,0.9-2.1,1.9-2.1c1,0,1.9,0.8,1.9,2.1c0,1.3-0.9,2.1-1.9,2.1
			C109.6,26.4,108.7,25.6,108.7,24.3z M111.6,24.3c0-0.8-0.4-1.4-1-1.4c-0.6,0-1,0.6-1,1.4c0,0.8,0.4,1.4,1,1.4
			C111.2,25.7,111.6,25.1,111.6,24.3z"/>
		<path class="st0" d="M113.5,25.4v-4.8h0.8v4.9c0,0.2,0.1,0.3,0.2,0.3c0,0,0.1,0,0.1,0l0.1,0.6c-0.1,0-0.2,0.1-0.4,0.1
			C113.7,26.4,113.5,26,113.5,25.4z"/>
		<path class="st0" d="M117,24.3c0-1.3,0.9-2.1,1.9-2.1c1,0,1.9,0.8,1.9,2.1c0,1.3-0.9,2.1-1.9,2.1C117.9,26.4,117,25.6,117,24.3z
			 M119.9,24.3c0-0.8-0.4-1.4-1-1.4c-0.6,0-1,0.6-1,1.4c0,0.8,0.4,1.4,1,1.4C119.5,25.7,119.9,25.1,119.9,24.3z"/>
		<path class="st0" d="M121.8,23h-0.5v-0.6l0.5,0v-0.5c0-0.8,0.4-1.4,1.3-1.4c0.3,0,0.5,0.1,0.7,0.1l-0.2,0.6
			c-0.1-0.1-0.3-0.1-0.4-0.1c-0.4,0-0.5,0.2-0.5,0.7v0.5h0.8V23h-0.8v3.3h-0.8V23z"/>
		<path class="st0" d="M125.9,21h1.4c1.6,0,2.6,0.9,2.6,2.6c0,1.7-0.9,2.7-2.5,2.7h-1.4V21z M127.2,25.6c1.1,0,1.8-0.7,1.8-2
			c0-1.3-0.6-2-1.8-2h-0.5v4H127.2z"/>
		<path class="st0" d="M130.7,21.1c0-0.3,0.2-0.5,0.5-0.5c0.3,0,0.5,0.2,0.5,0.5c0,0.3-0.2,0.5-0.5,0.5
			C131,21.6,130.7,21.4,130.7,21.1z M130.8,22.3h0.8v4h-0.8V22.3z"/>
		<path class="st0" d="M132.6,27c0-0.3,0.2-0.6,0.6-0.9v0c-0.2-0.1-0.4-0.3-0.4-0.7c0-0.3,0.2-0.6,0.4-0.7v0
			c-0.3-0.2-0.5-0.6-0.5-1.1c0-0.9,0.7-1.4,1.5-1.4c0.2,0,0.4,0,0.6,0.1h1.4v0.6h-0.8c0.2,0.2,0.3,0.4,0.3,0.7
			c0,0.9-0.7,1.4-1.5,1.4c-0.2,0-0.4,0-0.6-0.1c-0.1,0.1-0.2,0.2-0.2,0.4c0,0.2,0.2,0.4,0.7,0.4h0.7c0.9,0,1.4,0.3,1.4,1
			c0,0.8-0.8,1.4-2.1,1.4C133.3,28.1,132.6,27.7,132.6,27z M135.6,26.8c0-0.3-0.3-0.4-0.7-0.4h-0.6c-0.2,0-0.4,0-0.5-0.1
			c-0.2,0.2-0.3,0.4-0.3,0.6c0,0.4,0.4,0.6,1.1,0.6C135.1,27.5,135.6,27.2,135.6,26.8z M135.1,23.6c0-0.5-0.3-0.8-0.8-0.8
			s-0.8,0.3-0.8,0.8c0,0.5,0.3,0.9,0.8,0.9C134.7,24.5,135.1,24.2,135.1,23.6z"/>
		<path class="st0" d="M137,21.1c0-0.3,0.2-0.5,0.5-0.5c0.3,0,0.5,0.2,0.5,0.5c0,0.3-0.2,0.5-0.5,0.5C137.2,21.6,137,21.4,137,21.1z
			 M137.1,22.3h0.8v4h-0.8V22.3z"/>
		<path class="st0" d="M139.3,25v-2h-0.6v-0.6l0.6,0l0.1-1.1h0.7v1.1h1V23h-1v2c0,0.5,0.2,0.7,0.6,0.7c0.1,0,0.3,0,0.4-0.1l0.2,0.6
			c-0.2,0.1-0.5,0.1-0.8,0.1C139.6,26.4,139.3,25.8,139.3,25z"/>
		<path class="st0" d="M141.6,25.2c0-0.9,0.7-1.3,2.4-1.5c0-0.5-0.2-0.9-0.8-0.9c-0.4,0-0.8,0.2-1.2,0.4l-0.3-0.6
			c0.4-0.3,1-0.5,1.6-0.5c1,0,1.4,0.6,1.4,1.7v2.4h-0.7l-0.1-0.5h0c-0.4,0.3-0.8,0.5-1.3,0.5C142.1,26.4,141.6,25.9,141.6,25.2z
			 M144,25.3v-1c-1.2,0.1-1.6,0.4-1.6,0.9c0,0.4,0.3,0.5,0.6,0.5C143.4,25.7,143.7,25.6,144,25.3z"/>
		<path class="st0" d="M146,25.4v-4.8h0.8v4.9c0,0.2,0.1,0.3,0.2,0.3c0,0,0.1,0,0.1,0l0.1,0.6c-0.1,0-0.2,0.1-0.4,0.1
			C146.3,26.4,146,26,146,25.4z"/>
		<path class="st0" d="M149.9,21h0.8v2.2h2.3V21h0.8v5.3H153v-2.4h-2.3v2.4h-0.8V21z"/>
		<path class="st0" d="M155.1,24.8v-2.5h0.8v2.4c0,0.7,0.2,1,0.7,1c0.4,0,0.6-0.2,1-0.6v-2.8h0.8v4h-0.7l-0.1-0.6h0
			c-0.4,0.4-0.8,0.7-1.3,0.7C155.5,26.4,155.1,25.8,155.1,24.8z"/>
		<path class="st0" d="M159.7,22.3h0.7l0.1,0.6h0c0.3-0.4,0.7-0.7,1.2-0.7c0.6,0,0.9,0.3,1.1,0.7c0.4-0.4,0.8-0.7,1.3-0.7
			c0.8,0,1.2,0.6,1.2,1.6v2.5h-0.8v-2.4c0-0.7-0.2-1-0.7-1c-0.3,0-0.6,0.2-0.9,0.5v2.8H162v-2.4c0-0.7-0.2-1-0.7-1
			c-0.3,0-0.6,0.2-0.9,0.5v2.8h-0.8V22.3z"/>
		<path class="st0" d="M166.2,25.2c0-0.9,0.7-1.3,2.4-1.5c0-0.5-0.2-0.9-0.8-0.9c-0.4,0-0.8,0.2-1.2,0.4l-0.3-0.6
			c0.4-0.3,1-0.5,1.6-0.5c1,0,1.4,0.6,1.4,1.7v2.4h-0.7l-0.1-0.5h0c-0.4,0.3-0.8,0.5-1.3,0.5C166.7,26.4,166.2,25.9,166.2,25.2z
			 M168.6,25.3v-1c-1.2,0.1-1.6,0.4-1.6,0.9c0,0.4,0.3,0.5,0.6,0.5C168,25.7,168.3,25.6,168.6,25.3z"/>
		<path class="st0" d="M170.6,22.3h0.7l0.1,0.5h0c0.4-0.4,0.8-0.7,1.3-0.7c0.8,0,1.2,0.6,1.2,1.6v2.5h-0.8v-2.4c0-0.7-0.2-1-0.7-1
			c-0.4,0-0.6,0.2-1,0.5v2.8h-0.8V22.3z"/>
		<path class="st0" d="M175,21.1c0-0.3,0.2-0.5,0.5-0.5c0.3,0,0.5,0.2,0.5,0.5c0,0.3-0.2,0.5-0.5,0.5C175.3,21.6,175,21.4,175,21.1z
			 M175.1,22.3h0.8v4h-0.8V22.3z"/>
		<path class="st0" d="M177.4,25v-2h-0.6v-0.6l0.6,0l0.1-1.1h0.7v1.1h1V23h-1v2c0,0.5,0.2,0.7,0.6,0.7c0.1,0,0.3,0,0.4-0.1l0.2,0.6
			c-0.2,0.1-0.5,0.1-0.8,0.1C177.7,26.4,177.4,25.8,177.4,25z"/>
		<path class="st0" d="M180,21.1c0-0.3,0.2-0.5,0.5-0.5c0.3,0,0.5,0.2,0.5,0.5c0,0.3-0.2,0.5-0.5,0.5C180.2,21.6,180,21.4,180,21.1z
			 M180.1,22.3h0.8v4h-0.8V22.3z"/>
		<path class="st0" d="M181.9,24.3c0-1.3,0.9-2.1,1.8-2.1c1.1,0,1.6,0.8,1.6,1.9c0,0.2,0,0.3,0,0.4h-2.6c0.1,0.8,0.5,1.2,1.2,1.2
			c0.4,0,0.7-0.1,0.9-0.3l0.3,0.5c-0.4,0.2-0.8,0.4-1.3,0.4C182.7,26.4,181.9,25.6,181.9,24.3z M184.6,23.9c0-0.7-0.3-1.1-0.9-1.1
			c-0.5,0-0.9,0.4-1,1.1H184.6z"/>
		<path class="st0" d="M185.8,25.8l0.4-0.5c0.4,0.3,0.7,0.5,1.1,0.5c0.5,0,0.7-0.2,0.7-0.5c0-0.4-0.4-0.5-0.9-0.7
			c-0.5-0.2-1.1-0.5-1.1-1.2c0-0.7,0.5-1.2,1.4-1.2c0.5,0,1,0.2,1.3,0.5l-0.4,0.5c-0.3-0.2-0.6-0.3-0.9-0.3c-0.4,0-0.6,0.2-0.6,0.5
			c0,0.3,0.4,0.5,0.8,0.6c0.6,0.2,1.2,0.5,1.2,1.2c0,0.7-0.5,1.2-1.5,1.2C186.8,26.4,186.2,26.2,185.8,25.8z"/>
		<path class="st0" d="M191.1,25.2c0-0.9,0.7-1.3,2.4-1.5c0-0.5-0.2-0.9-0.8-0.9c-0.4,0-0.8,0.2-1.2,0.4l-0.3-0.6
			c0.4-0.3,1-0.5,1.6-0.5c1,0,1.4,0.6,1.4,1.7v2.4h-0.7l-0.1-0.5h0c-0.4,0.3-0.8,0.5-1.3,0.5C191.6,26.4,191.1,25.9,191.1,25.2z
			 M193.5,25.3v-1c-1.2,0.1-1.6,0.4-1.6,0.9c0,0.4,0.3,0.5,0.6,0.5C192.9,25.7,193.2,25.6,193.5,25.3z"/>
		<path class="st0" d="M195.5,22.3h0.7l0.1,0.5h0c0.4-0.4,0.8-0.7,1.3-0.7c0.8,0,1.2,0.6,1.2,1.6v2.5H198v-2.4c0-0.7-0.2-1-0.7-1
			c-0.4,0-0.6,0.2-1,0.5v2.8h-0.8V22.3z"/>
		<path class="st0" d="M199.8,24.3c0-1.3,0.8-2.1,1.7-2.1c0.5,0,0.7,0.2,1.1,0.4l0-0.7v-1.5h0.8v5.8h-0.7l-0.1-0.4h0
			c-0.3,0.3-0.7,0.5-1.2,0.5C200.4,26.4,199.8,25.6,199.8,24.3z M202.5,25.2v-1.9c-0.3-0.3-0.6-0.4-0.9-0.4c-0.6,0-1,0.5-1,1.4
			c0,0.9,0.4,1.4,1,1.4C201.9,25.7,202.2,25.5,202.5,25.2z"/>
		<path class="st0" d="M91.7,32.7c0-1.7,1.1-2.8,2.4-2.8c0.7,0,1.2,0.3,1.5,0.7l-0.5,0.5c-0.3-0.3-0.6-0.5-1-0.5
			c-0.9,0-1.6,0.8-1.6,2c0,1.3,0.6,2,1.5,2c0.5,0,0.9-0.2,1.2-0.6l0.4,0.5c-0.4,0.5-1,0.8-1.7,0.8C92.8,35.5,91.7,34.5,91.7,32.7z"
			/>
		<path class="st0" d="M96.3,33.4c0-1.3,0.9-2.1,1.9-2.1c1,0,1.9,0.8,1.9,2.1c0,1.3-0.9,2.1-1.9,2.1C97.2,35.5,96.3,34.7,96.3,33.4z
			 M99.2,33.4c0-0.8-0.4-1.4-1-1.4c-0.6,0-1,0.6-1,1.4c0,0.8,0.4,1.4,1,1.4C98.8,34.8,99.2,34.2,99.2,33.4z"/>
		<path class="st0" d="M101.1,31.4h0.7l0.1,0.6h0c0.3-0.4,0.7-0.7,1.2-0.7c0.6,0,0.9,0.3,1.1,0.7c0.4-0.4,0.8-0.7,1.3-0.7
			c0.8,0,1.2,0.6,1.2,1.6v2.5h-0.8V33c0-0.7-0.2-1-0.7-1c-0.3,0-0.6,0.2-0.9,0.5v2.8h-0.8V33c0-0.7-0.2-1-0.7-1
			c-0.3,0-0.6,0.2-0.9,0.5v2.8h-0.8V31.4z"/>
		<path class="st0" d="M107.9,31.4h0.7l0.1,0.4h0c0.3-0.3,0.8-0.5,1.2-0.5c1,0,1.6,0.8,1.6,2c0,1.4-0.8,2.1-1.7,2.1
			c-0.4,0-0.7-0.2-1-0.4l0,0.7V37h-0.8V31.4z M110.6,33.3c0-0.8-0.3-1.3-0.9-1.3c-0.3,0-0.6,0.2-0.9,0.5v1.9
			c0.3,0.3,0.6,0.4,0.9,0.4C110.1,34.8,110.6,34.3,110.6,33.3z"/>
		<path class="st0" d="M112.4,33.9v-2.5h0.8v2.4c0,0.7,0.2,1,0.7,1c0.4,0,0.6-0.2,1-0.6v-2.8h0.8v4H115l-0.1-0.6h0
			c-0.4,0.4-0.8,0.7-1.3,0.7C112.8,35.5,112.4,34.9,112.4,33.9z"/>
		<path class="st0" d="M117.1,34.1v-2h-0.6v-0.6l0.6,0l0.1-1.1h0.7v1.1h1v0.7h-1v2c0,0.5,0.2,0.7,0.6,0.7c0.1,0,0.3,0,0.4-0.1
			l0.2,0.6c-0.2,0.1-0.5,0.1-0.8,0.1C117.4,35.5,117.1,34.9,117.1,34.1z"/>
		<path class="st0" d="M119.4,34.3c0-0.9,0.7-1.3,2.4-1.5c0-0.5-0.2-0.9-0.8-0.9c-0.4,0-0.8,0.2-1.2,0.4l-0.3-0.6
			c0.4-0.3,1-0.5,1.6-0.5c1,0,1.4,0.6,1.4,1.7v2.4h-0.7l-0.1-0.5h0c-0.4,0.3-0.8,0.5-1.3,0.5C119.9,35.5,119.4,35,119.4,34.3z
			 M121.8,34.4v-1c-1.2,0.1-1.6,0.4-1.6,0.9c0,0.4,0.3,0.5,0.6,0.5C121.2,34.8,121.4,34.7,121.8,34.4z"/>
		<path class="st0" d="M123.8,34.1v-2h-0.6v-0.6l0.6,0l0.1-1.1h0.7v1.1h1v0.7h-1v2c0,0.5,0.2,0.7,0.6,0.7c0.1,0,0.3,0,0.4-0.1
			l0.2,0.6c-0.2,0.1-0.5,0.1-0.8,0.1C124.1,35.5,123.8,34.9,123.8,34.1z"/>
		<path class="st0" d="M126.4,30.2c0-0.3,0.2-0.5,0.5-0.5c0.3,0,0.5,0.2,0.5,0.5c0,0.3-0.2,0.5-0.5,0.5
			C126.6,30.7,126.4,30.5,126.4,30.2z M126.5,31.4h0.8v4h-0.8V31.4z"/>
		<path class="st0" d="M128.3,33.4c0-1.3,0.9-2.1,1.9-2.1c1,0,1.9,0.8,1.9,2.1c0,1.3-0.9,2.1-1.9,2.1
			C129.2,35.5,128.3,34.7,128.3,33.4z M131.2,33.4c0-0.8-0.4-1.4-1-1.4c-0.6,0-1,0.6-1,1.4c0,0.8,0.4,1.4,1,1.4
			C130.8,34.8,131.2,34.2,131.2,33.4z"/>
		<path class="st0" d="M133,31.4h0.7l0.1,0.5h0c0.4-0.4,0.8-0.7,1.3-0.7c0.8,0,1.2,0.6,1.2,1.6v2.5h-0.8V33c0-0.7-0.2-1-0.7-1
			c-0.4,0-0.6,0.2-1,0.5v2.8H133V31.4z"/>
		<path class="st0" d="M137.3,34.3c0-0.9,0.7-1.3,2.4-1.5c0-0.5-0.2-0.9-0.8-0.9c-0.4,0-0.8,0.2-1.2,0.4l-0.3-0.6
			c0.4-0.3,1-0.5,1.6-0.5c1,0,1.4,0.6,1.4,1.7v2.4h-0.7l-0.1-0.5h0c-0.4,0.3-0.8,0.5-1.3,0.5C137.8,35.5,137.3,35,137.3,34.3z
			 M139.7,34.4v-1c-1.2,0.1-1.6,0.4-1.6,0.9c0,0.4,0.3,0.5,0.6,0.5C139.1,34.8,139.4,34.7,139.7,34.4z"/>
		<path class="st0" d="M141.7,34.5v-4.8h0.8v4.9c0,0.2,0.1,0.3,0.2,0.3c0,0,0.1,0,0.1,0l0.1,0.6c-0.1,0-0.2,0.1-0.4,0.1
			C141.9,35.5,141.7,35.1,141.7,34.5z"/>
		<path class="st0" d="M145.2,34.7l0.5-0.6c0.4,0.4,0.9,0.6,1.4,0.6c0.6,0,1-0.3,1-0.8c0-0.5-0.4-0.6-0.9-0.9l-0.7-0.3
			c-0.5-0.2-1.1-0.6-1.1-1.4c0-0.8,0.7-1.5,1.8-1.5c0.6,0,1.2,0.3,1.6,0.7l-0.4,0.5c-0.3-0.3-0.7-0.5-1.2-0.5
			c-0.5,0-0.9,0.3-0.9,0.7c0,0.5,0.4,0.6,0.9,0.8l0.7,0.3c0.6,0.3,1.1,0.7,1.1,1.4c0,0.9-0.7,1.5-1.9,1.5
			C146.4,35.5,145.7,35.2,145.2,34.7z"/>
		<path class="st0" d="M149.6,33.4c0-1.3,0.9-2.1,1.9-2.1c1,0,1.9,0.8,1.9,2.1c0,1.3-0.9,2.1-1.9,2.1
			C150.5,35.5,149.6,34.7,149.6,33.4z M152.5,33.4c0-0.8-0.4-1.4-1-1.4c-0.6,0-1,0.6-1,1.4c0,0.8,0.4,1.4,1,1.4
			C152.1,34.8,152.5,34.2,152.5,33.4z"/>
		<path class="st0" d="M154.1,33.4c0-1.3,0.9-2.1,2-2.1c0.5,0,0.9,0.2,1.2,0.5l-0.4,0.5c-0.2-0.2-0.4-0.3-0.7-0.3
			c-0.7,0-1.2,0.6-1.2,1.4c0,0.8,0.5,1.4,1.1,1.4c0.3,0,0.6-0.2,0.9-0.4l0.3,0.6c-0.4,0.3-0.8,0.5-1.3,0.5
			C154.9,35.5,154.1,34.7,154.1,33.4z"/>
		<path class="st0" d="M158,30.2c0-0.3,0.2-0.5,0.5-0.5c0.3,0,0.5,0.2,0.5,0.5c0,0.3-0.2,0.5-0.5,0.5C158.2,30.7,158,30.5,158,30.2z
			 M158.1,31.4h0.8v4h-0.8V31.4z"/>
		<path class="st0" d="M159.9,34.3c0-0.9,0.7-1.3,2.4-1.5c0-0.5-0.2-0.9-0.8-0.9c-0.4,0-0.8,0.2-1.2,0.4l-0.3-0.6
			c0.4-0.3,1-0.5,1.6-0.5c1,0,1.4,0.6,1.4,1.7v2.4h-0.7l-0.1-0.5h0c-0.4,0.3-0.8,0.5-1.3,0.5C160.4,35.5,159.9,35,159.9,34.3z
			 M162.3,34.4v-1c-1.2,0.1-1.6,0.4-1.6,0.9c0,0.4,0.3,0.5,0.6,0.5C161.7,34.8,162,34.7,162.3,34.4z"/>
		<path class="st0" d="M164.3,34.5v-4.8h0.8v4.9c0,0.2,0.1,0.3,0.2,0.3c0,0,0.1,0,0.1,0l0.1,0.6c-0.1,0-0.2,0.1-0.4,0.1
			C164.5,35.5,164.3,35.1,164.3,34.5z"/>
		<path class="st0" d="M167.8,34.7l0.5-0.6c0.4,0.4,0.9,0.6,1.4,0.6c0.6,0,1-0.3,1-0.8c0-0.5-0.4-0.6-0.9-0.9l-0.7-0.3
			c-0.5-0.2-1.1-0.6-1.1-1.4c0-0.8,0.7-1.5,1.8-1.5c0.6,0,1.2,0.3,1.6,0.7l-0.4,0.5c-0.3-0.3-0.7-0.5-1.2-0.5
			c-0.5,0-0.9,0.3-0.9,0.7c0,0.5,0.4,0.6,0.9,0.8l0.7,0.3c0.6,0.3,1.1,0.7,1.1,1.4c0,0.9-0.7,1.5-1.9,1.5
			C169,35.5,168.3,35.2,167.8,34.7z"/>
		<path class="st0" d="M172.2,33.4c0-1.3,0.9-2.1,2-2.1c0.5,0,0.9,0.2,1.2,0.5l-0.4,0.5c-0.2-0.2-0.4-0.3-0.7-0.3
			c-0.7,0-1.2,0.6-1.2,1.4c0,0.8,0.5,1.4,1.1,1.4c0.3,0,0.6-0.2,0.9-0.4l0.3,0.6c-0.4,0.3-0.8,0.5-1.3,0.5
			C173,35.5,172.2,34.7,172.2,33.4z"/>
		<path class="st0" d="M176.1,30.2c0-0.3,0.2-0.5,0.5-0.5c0.3,0,0.5,0.2,0.5,0.5c0,0.3-0.2,0.5-0.5,0.5
			C176.3,30.7,176.1,30.5,176.1,30.2z M176.2,31.4h0.8v4h-0.8V31.4z"/>
		<path class="st0" d="M178,33.4c0-1.3,0.9-2.1,1.8-2.1c1.1,0,1.6,0.8,1.6,1.9c0,0.2,0,0.3,0,0.4h-2.6c0.1,0.8,0.5,1.2,1.2,1.2
			c0.4,0,0.7-0.1,0.9-0.3l0.3,0.5c-0.4,0.2-0.8,0.4-1.3,0.4C178.9,35.5,178,34.7,178,33.4z M180.7,33c0-0.7-0.3-1.1-0.9-1.1
			c-0.5,0-0.9,0.4-1,1.1H180.7z"/>
		<path class="st0" d="M182.4,31.4h0.7l0.1,0.5h0c0.4-0.4,0.8-0.7,1.3-0.7c0.8,0,1.2,0.6,1.2,1.6v2.5h-0.8V33c0-0.7-0.2-1-0.7-1
			c-0.4,0-0.6,0.2-1,0.5v2.8h-0.8V31.4z"/>
		<path class="st0" d="M186.6,33.4c0-1.3,0.9-2.1,2-2.1c0.5,0,0.9,0.2,1.2,0.5l-0.4,0.5c-0.2-0.2-0.4-0.3-0.7-0.3
			c-0.7,0-1.2,0.6-1.2,1.4c0,0.8,0.5,1.4,1.1,1.4c0.3,0,0.6-0.2,0.9-0.4l0.3,0.6c-0.4,0.3-0.8,0.5-1.3,0.5
			C187.5,35.5,186.6,34.7,186.6,33.4z"/>
		<path class="st0" d="M190.2,33.4c0-1.3,0.9-2.1,1.8-2.1c1.1,0,1.6,0.8,1.6,1.9c0,0.2,0,0.3,0,0.4H191c0.1,0.8,0.5,1.2,1.2,1.2
			c0.4,0,0.7-0.1,0.9-0.3l0.3,0.5c-0.4,0.2-0.8,0.4-1.3,0.4C191,35.5,190.2,34.7,190.2,33.4z M192.9,33c0-0.7-0.3-1.1-0.9-1.1
			c-0.5,0-0.9,0.4-1,1.1H192.9z"/>
		<path class="st0" d="M194.1,34.9l0.4-0.5c0.4,0.3,0.7,0.5,1.1,0.5c0.5,0,0.7-0.2,0.7-0.5c0-0.4-0.4-0.5-0.9-0.7
			c-0.5-0.2-1.1-0.5-1.1-1.2c0-0.7,0.5-1.2,1.4-1.2c0.5,0,1,0.2,1.3,0.5l-0.4,0.5c-0.3-0.2-0.6-0.3-0.9-0.3c-0.4,0-0.6,0.2-0.6,0.5
			c0,0.3,0.4,0.5,0.8,0.6c0.6,0.2,1.2,0.5,1.2,1.2c0,0.7-0.5,1.2-1.5,1.2C195.1,35.5,194.5,35.2,194.1,34.9z"/>
	</g>
	<g>
		<path class="st0" d="M92.9,10c2.7,0,4.5-0.1,6.4-0.5l0.2,1.4c-2.1,0.4-4,0.5-7,0.5h-1.2V1.7h6.9V3h-5.3V10z M102.3,0.3v14.6h-1.7
			V0.3H102.3z"/>
		<path class="st0" d="M110.6,4.5c0,2.4,1.5,4.9,3.8,5.9l-0.9,1.3c-1.7-0.7-3-2.3-3.7-4.2c-0.6,2-2,3.8-3.7,4.6l-1-1.3
			c2.3-1,3.8-3.8,3.8-6.3V3.1h-3.2V1.8h8.2v1.4h-3.2V4.5z M117.2,0.3v14.6h-1.7V0.3H117.2z"/>
		<path class="st0" d="M128.1,7.3c-1.9,0.3-3.5,0.3-6.3,0.3h-1.1V1.2h6.6v1.3h-5v1.3h4.6V5h-4.6v1.4c2.4,0,3.9,0,5.6-0.3L128.1,7.3z
			 M132.6,13.5v1.3h-9.9v-3.7h7.8V10h-7.8V8.7h9.5v3.6h-7.8v1.2H132.6z M130.4,4.9h-2.5V3.5h2.5V0.3h1.7v7.8h-1.7V4.9z"/>
		<path class="st0" d="M139,8.6c-2.2,0-3.9-1.5-3.9-3.6c0-2.1,1.7-3.6,3.9-3.6c2.2,0,3.9,1.5,3.9,3.6C142.9,7,141.2,8.6,139,8.6z
			 M139,7.1c1.3,0,2.2-0.9,2.2-2.2c0-1.3-1-2.2-2.2-2.2c-1.3,0-2.2,0.9-2.2,2.2C136.8,6.2,137.7,7.1,139,7.1z M147.3,13.2v1.4h-9.9
			V9.8h1.7v3.4H147.3z M146.9,10.9h-1.7V0.3h1.7V10.9z"/>
		<path class="st0" d="M162.9,7.7V9h-5.6v2.7h-1.7V9h-5.9V7.7H162.9z M153,13.2h8.5v1.4h-10.1v-4.2h1.7V13.2z M161.2,6.2h-9.8V1h9.8
			V6.2z M159.5,2.3H153v2.6h6.6V2.3z"/>
		<path class="st0" d="M169.6,3.9c0,2.6,1.4,5.2,3.5,6.3l-1,1.3c-1.6-0.8-2.7-2.4-3.4-4.3c-0.6,2-1.9,3.7-3.5,4.6l-1-1.3
			c2.3-1.1,3.7-3.9,3.7-6.6V1.5h1.7V3.9z M178.1,7.5h-2.3v7.4h-1.7V0.3h1.7v5.8h2.3V7.5z"/>
		<path class="st0" d="M185,10.8c1.3-0.1,2.6-0.2,3.9-0.3l0.1,1.2c-3.2,0.5-6.7,0.6-9.3,0.6l-0.2-1.4c1.2,0,2.5,0,3.9,0V9.4
			c-1.6-0.3-2.7-1.3-2.7-2.7c0-1.6,1.5-2.7,3.6-2.7c2.1,0,3.5,1.1,3.5,2.7c0,1.4-1.1,2.4-2.7,2.7V10.8z M188.5,3.3h-8.8V2h3.6V0.3
			h1.7V2h3.6V3.3z M184.2,8.2c1.2,0,2-0.5,2-1.5c0-0.9-0.8-1.4-2-1.4c-1.2,0-2,0.5-2,1.4C182.2,7.7,183,8.2,184.2,8.2z M191.3,0.3
			v14.6h-1.7V0.3H191.3z"/>
		<path class="st0" d="M198.6,10.4c1.5-0.1,3-0.2,4.5-0.3l0.1,1.2c-3,0.5-6.3,0.6-8.9,0.6l-0.2-1.4c0.9,0,1.9,0,2.9,0V6h1.6V10.4z
			 M200.2,8.4c0.4-2.3,0.4-4,0.4-5.2h-5.8V1.8h7.4v1c0,1.3,0,3.1-0.4,5.7L200.2,8.4z M207.6,7.7h-2.1v7.2h-1.7V0.3h1.7v6h2.1V7.7z"
			/>
		<path class="st0" d="M217.6,3.1H209V1.7h3.5V0.2h1.7v1.5h3.5V3.1z M213.3,9c-2.1,0-3.5-1.1-3.5-2.6c0-1.6,1.4-2.7,3.5-2.7
			c2.1,0,3.5,1.1,3.5,2.7C216.9,7.9,215.4,9,213.3,9z M210.8,10.1h9.6v4.7h-1.7v-3.4h-7.9V10.1z M213.3,7.7c1.2,0,2-0.5,2-1.4
			c0-0.9-0.8-1.4-2-1.4c-1.2,0-1.9,0.5-1.9,1.4C211.4,7.2,212.2,7.7,213.3,7.7z M222.5,5.6h-2.1v3.8h-1.7V0.3h1.7v3.9h2.1V5.6z"/>
		<path class="st0" d="M237.1,10.2h-5.8v4.7h-1.7v-4.7h-5.7V8.8h13.2V10.2z M235.4,7.2h-10V0.9h1.7v1.8h6.7V0.9h1.7V7.2z M233.8,4.1
			h-6.7v1.9h6.7V4.1z"/>
	</g>
</g>
</svg>
